<svg xmlns="http://www.w3.org/2000/svg" viewBox="0 0 512 512" style="enable-background:new 0 0 512 512" xml:space="preserve">
    <path style="fill:#4A90E2" d="M464.935 394.525v107.841h-363.95c-14.879 0-28.36-6.034-38.129-15.791-9.757-9.757-15.791-23.237-15.791-38.129 0-29.785 24.149-53.92 53.92-53.92h363.95z"/>
    <path style="fill:#6BA4E9" d="M464.935 9.624v384.902h-363.95c-29.772 0-53.92 24.136-53.92 53.92V63.531c0-14.892 6.034-28.36 15.791-38.117 9.77-9.757 23.25-15.791 38.129-15.791l363.95.001z"/>
    <path style="fill:#4A90E2" d="M100.985 9.624v384.902c-29.772 0-53.92 24.136-53.92 53.92V63.531c0-14.892 6.034-28.36 15.791-38.117 9.77-9.757 23.25-15.79 38.129-15.79z"/>
    <path style="fill:#F5F5F5" d="M424.495 394.525v70.61H53.214l-3.325.603a53.895 53.895 0 0 1-2.824-17.293c0-4.801.629-9.462 1.81-13.904 6.137-23.045 27.14-40.017 52.11-40.017h323.51z"/>
    <path style="fill:#E0E0E0" d="M424.495 394.525v40.017H48.875c6.137-23.045 27.14-40.017 52.11-40.017h323.51z"/>
    <path style="fill:#ffbc7c" d="M422.569 93.906v214.192c-23.276 0-42.148 18.859-42.148 42.135H187.425c0-23.276-18.872-42.135-42.148-42.135V93.906c23.276 0 42.148-18.872 42.148-42.148h192.997c-.001 23.276 18.871 42.148 42.147 42.148z"/>
    <path style="fill:#FF8A80" d="M283.923 174.531c0-20.722 16.844-37.521 37.622-37.521 25.973 0 47.029 20.998 47.029 46.902 0 32.379-45.298 64.034-84.651 81.076-39.353-17.041-84.651-48.697-84.651-81.076 0-25.904 21.056-46.902 47.029-46.902 20.778-.001 37.622 16.799 37.622 37.521z"/>
  </svg>